<svg xmlns="http://www.w3.org/2000/svg" viewBox="0 0 300.92 488.69"><defs><style>.cls-1{fill:none;stroke:#0d9147;}</style></defs><g id="Layer_2" data-name="Layer 2"><g id="Layer_1-2" data-name="Layer 1"><path class="cls-1" d="M75.48,162.9s.59-21.86,27.13-26.42c6-1,10.35-7,10.35-13.86v-.86c0-6.88,4.37-12.85,10.36-13.87,26.54-4.55,27.14-26.43,27.14-26.43s.59,21.88,27.14,26.43c6,1,10.34,7,10.34,13.87v.86c0,6.86,4.37,12.83,10.36,13.86,26.55,4.56,27.14,26.42,27.14,26.42s-.59,21.88-27.14,26.44c-6,1-10.36,7-10.36,13.85v.87c0,6.86-4.35,12.83-10.34,13.87-26.55,4.56-27.14,26.42-27.14,26.42s-.6-21.86-27.14-26.42c-6-1-10.36-7-10.36-13.87v-.87c0-6.86-4.35-12.83-10.35-13.85C76.07,184.78,75.48,162.9,75.48,162.9Z"/><path class="cls-1" d="M.5,81.46S1.09,59.6,27.63,55C33.63,54,38,48,38,41.17v-.86c0-6.87,4.37-12.84,10.36-13.86C74.88,21.89,75.48,0,75.48,0s.59,21.88,27.14,26.44c6,1,10.34,7,10.34,13.86v.86C113,48,117.33,54,123.32,55c26.55,4.56,27.14,26.42,27.14,26.42s-.59,21.88-27.14,26.43c-6,1-10.36,7-10.36,13.85v.88c0,6.86-4.35,12.83-10.34,13.86C76.07,141,75.48,162.9,75.48,162.9s-.6-21.86-27.14-26.42c-6-1-10.36-7-10.36-13.86v-.88c0-6.86-4.35-12.83-10.35-13.85C1.09,103.34.5,81.46.5,81.46Z"/><path class="cls-1" d="M75.48,325.79s.59-21.86,27.13-26.42c6-1,10.35-7,10.35-13.86v-.86c0-6.88,4.37-12.85,10.36-13.87,26.54-4.56,27.14-26.43,27.14-26.43s.59,21.87,27.14,26.43c6,1,10.34,7,10.34,13.87v.86c0,6.86,4.37,12.82,10.36,13.86,26.55,4.56,27.14,26.42,27.14,26.42s-.59,21.88-27.14,26.44c-6,1-10.36,7-10.36,13.84V367c0,6.86-4.35,12.83-10.34,13.87-26.55,4.55-27.14,26.41-27.14,26.41s-.6-21.86-27.14-26.41c-6-1-10.36-7-10.36-13.87v-.88c0-6.86-4.35-12.82-10.35-13.84C76.07,347.67,75.48,325.79,75.48,325.79Z"/><path class="cls-1" d="M150.46,244.35s.59-21.86,27.13-26.42c6-1,10.35-7,10.35-13.87v-.86c0-6.87,4.37-12.84,10.36-13.86,26.54-4.56,27.14-26.44,27.14-26.44s.59,21.88,27.14,26.44c6,1,10.34,7,10.34,13.86v.86c0,6.86,4.37,12.83,10.36,13.87,26.55,4.56,27.14,26.42,27.14,26.42s-.59,21.87-27.14,26.43c-6,1-10.36,7-10.36,13.85v.88c0,6.86-4.35,12.82-10.34,13.86-26.55,4.56-27.14,26.42-27.14,26.42s-.6-21.86-27.14-26.42c-6-1-10.36-7-10.36-13.86v-.88c0-6.86-4.35-12.83-10.35-13.85C151.05,266.22,150.46,244.35,150.46,244.35Z"/><path class="cls-1" d="M.5,244.35s.59-21.86,27.13-26.42c6-1,10.35-7,10.35-13.87v-.86c0-6.87,4.37-12.84,10.36-13.86,26.54-4.56,27.14-26.44,27.14-26.44s.59,21.88,27.14,26.44c6,1,10.34,7,10.34,13.86v.86c0,6.86,4.37,12.83,10.36,13.87,26.55,4.56,27.14,26.42,27.14,26.42s-.59,21.87-27.14,26.43c-6,1-10.36,7-10.36,13.85v.88c0,6.86-4.35,12.82-10.34,13.86-26.55,4.56-27.14,26.42-27.14,26.42s-.6-21.86-27.14-26.42c-6-1-10.36-7-10.36-13.86v-.88c0-6.86-4.35-12.83-10.35-13.85C1.09,266.22.5,244.35.5,244.35Z"/><path class="cls-1" d="M.5,407.24s.59-21.87,27.13-26.42c6-1,10.35-7,10.35-13.87v-.86c0-6.88,4.37-12.84,10.36-13.86,26.54-4.56,27.14-26.44,27.14-26.44s.59,21.88,27.14,26.44c6,1,10.34,7,10.34,13.86V367c0,6.86,4.37,12.83,10.36,13.87,26.55,4.55,27.14,26.42,27.14,26.42s-.59,21.87-27.14,26.43c-6,1-10.36,7-10.36,13.85v.87c0,6.87-4.35,12.83-10.34,13.87-26.55,4.56-27.14,26.42-27.14,26.42s-.6-21.86-27.14-26.42c-6-1-10.36-7-10.36-13.87v-.87c0-6.86-4.35-12.83-10.35-13.85C1.09,429.11.5,407.24.5,407.24Z"/></g></g></svg>