<svg xmlns="http://www.w3.org/2000/svg" viewBox="0 0 450.88 488.69"><defs><style>.cls-1{fill:none;stroke:#0d9147;}</style></defs><g id="Layer_2" data-name="Layer 2"><g id="Layer_1-2" data-name="Layer 1"><path class="cls-1" d="M225.44,325.79s-.59,21.86-27.13,26.42c-6,1-10.35,7-10.35,13.87v.85c0,6.88-4.37,12.85-10.36,13.87-26.54,4.56-27.14,26.44-27.14,26.44s-.59-21.88-27.14-26.44c-6-1-10.34-7-10.34-13.87v-.85c0-6.86-4.37-12.83-10.36-13.87-26.55-4.56-27.14-26.42-27.14-26.42s.59-21.88,27.14-26.43c6-1,10.36-7,10.36-13.85v-.88c0-6.86,4.35-12.83,10.34-13.87,26.55-4.55,27.14-26.41,27.14-26.41s.6,21.86,27.14,26.41c6,1,10.36,7,10.36,13.87v.88c0,6.86,4.35,12.82,10.35,13.85C224.85,303.91,225.44,325.79,225.44,325.79Z"/><path class="cls-1" d="M375.4,325.79s-.59,21.86-27.13,26.42c-6,1-10.35,7-10.35,13.87v.85c0,6.88-4.37,12.85-10.36,13.87-26.54,4.56-27.14,26.44-27.14,26.44s-.59-21.88-27.14-26.44c-6-1-10.34-7-10.34-13.87v-.85c0-6.86-4.37-12.83-10.36-13.87-26.55-4.56-27.14-26.42-27.14-26.42s.59-21.88,27.14-26.43c6-1,10.36-7,10.36-13.85v-.88c0-6.86,4.35-12.83,10.34-13.87,26.55-4.55,27.14-26.41,27.14-26.41s.6,21.86,27.14,26.41c6,1,10.36,7,10.36,13.87v.88c0,6.86,4.35,12.82,10.35,13.85C374.81,303.91,375.4,325.79,375.4,325.79Z"/><path class="cls-1" d="M150.46,407.24s-.59,21.86-27.13,26.41c-6,1-10.35,7-10.35,13.87v.86c0,6.88-4.37,12.84-10.36,13.86-26.54,4.56-27.14,26.44-27.14,26.44s-.59-21.88-27.14-26.44c-6-1-10.34-7-10.34-13.86v-.86c0-6.86-4.37-12.83-10.36-13.87C1.09,429.1.5,407.24.5,407.24s.59-21.88,27.14-26.44c6-1,10.36-7,10.36-13.85v-.87c0-6.86,4.35-12.83,10.34-13.87,26.55-4.56,27.14-26.42,27.14-26.42s.6,21.86,27.14,26.42c6,1,10.36,7,10.36,13.87V367c0,6.86,4.35,12.83,10.35,13.85C149.87,385.36,150.46,407.24,150.46,407.24Z"/><path class="cls-1" d="M300.42,407.23s-.59,21.87-27.13,26.42c-6,1-10.35,7-10.35,13.87v.86c0,6.88-4.37,12.84-10.36,13.86-26.54,4.56-27.14,26.44-27.14,26.44s-.59-21.88-27.14-26.44c-6-1-10.34-7-10.34-13.86v-.86c0-6.86-4.37-12.83-10.36-13.87-26.55-4.55-27.14-26.42-27.14-26.42s.59-21.87,27.14-26.43c6-1,10.36-7,10.36-13.85v-.87c0-6.87,4.35-12.83,10.34-13.87,26.55-4.56,27.14-26.42,27.14-26.42s.6,21.86,27.14,26.42c6,1,10.36,7,10.36,13.87V367c0,6.86,4.35,12.83,10.35,13.85C299.83,385.36,300.42,407.23,300.42,407.23Z"/><path class="cls-1" d="M450.38,407.23s-.59,21.87-27.13,26.42c-6,1-10.35,7-10.35,13.87v.86c0,6.88-4.37,12.84-10.36,13.86C376,466.8,375.4,488.68,375.4,488.68s-.59-21.88-27.14-26.44c-6-1-10.34-7-10.34-13.86v-.86c0-6.86-4.37-12.83-10.36-13.87-26.55-4.55-27.14-26.42-27.14-26.42s.59-21.87,27.14-26.43c6-1,10.36-7,10.36-13.85v-.87c0-6.87,4.35-12.83,10.34-13.87,26.55-4.56,27.14-26.42,27.14-26.42s.6,21.86,27.14,26.42c6,1,10.36,7,10.36,13.87V367c0,6.86,4.35,12.83,10.35,13.85C449.79,385.36,450.38,407.23,450.38,407.23Z"/><path class="cls-1" d="M375.4,162.9s-.59,21.86-27.13,26.42c-6,1-10.35,7-10.35,13.87v.86c0,6.87-4.37,12.84-10.36,13.86-26.54,4.56-27.14,26.44-27.14,26.44s-.59-21.88-27.14-26.44c-6-1-10.34-7-10.34-13.86v-.86c0-6.86-4.37-12.83-10.36-13.87-26.55-4.56-27.14-26.42-27.14-26.42S226,141,252.58,136.47c6-1,10.36-7,10.36-13.85v-.88c0-6.86,4.35-12.83,10.34-13.86,26.55-4.56,27.14-26.42,27.14-26.42s.6,21.86,27.14,26.42c6,1,10.36,7,10.36,13.86v.88c0,6.86,4.35,12.83,10.35,13.85C374.81,141,375.4,162.9,375.4,162.9Z"/><path class="cls-1" d="M300.42,244.35s-.59,21.86-27.13,26.41c-6,1-10.35,7-10.35,13.87v.86c0,6.88-4.37,12.84-10.36,13.87-26.54,4.55-27.14,26.43-27.14,26.43s-.59-21.88-27.14-26.43c-6-1-10.34-7-10.34-13.87v-.86c0-6.86-4.37-12.83-10.36-13.87-26.55-4.55-27.14-26.41-27.14-26.41s.59-21.88,27.14-26.44c6-1,10.36-7,10.36-13.85v-.87c0-6.86,4.35-12.83,10.34-13.87,26.55-4.56,27.14-26.42,27.14-26.42s.6,21.86,27.14,26.42c6,1,10.36,7,10.36,13.87v.87c0,6.86,4.35,12.83,10.35,13.85C299.83,222.47,300.42,244.35,300.42,244.35Z"/><path class="cls-1" d="M450.38,244.35s-.59,21.86-27.13,26.41c-6,1-10.35,7-10.35,13.87v.86c0,6.88-4.37,12.84-10.36,13.87-26.54,4.55-27.14,26.43-27.14,26.43s-.59-21.88-27.14-26.43c-6-1-10.34-7-10.34-13.87v-.86c0-6.86-4.37-12.83-10.36-13.87-26.55-4.55-27.14-26.41-27.14-26.41s.59-21.88,27.14-26.44c6-1,10.36-7,10.36-13.85v-.87c0-6.86,4.35-12.83,10.34-13.87,26.55-4.56,27.14-26.42,27.14-26.42s.6,21.86,27.14,26.42c6,1,10.36,7,10.36,13.87v.87c0,6.86,4.35,12.83,10.35,13.85C449.79,222.47,450.38,244.35,450.38,244.35Z"/><path class="cls-1" d="M450.38,81.46s-.59,21.86-27.13,26.42c-6,1-10.35,7-10.35,13.86v.86c0,6.88-4.37,12.85-10.36,13.87C376,141,375.4,162.9,375.4,162.9s-.59-21.88-27.14-26.43c-6-1-10.34-7-10.34-13.87v-.86c0-6.86-4.37-12.83-10.36-13.86-26.55-4.56-27.14-26.42-27.14-26.42S301,59.58,327.56,55c6-1,10.36-7,10.36-13.85V40.3c0-6.86,4.35-12.83,10.34-13.87C374.81,21.87,375.4,0,375.4,0s.6,21.86,27.14,26.42c6,1,10.36,7,10.36,13.87v.87C412.9,48,417.25,54,423.25,55,449.79,59.58,450.38,81.46,450.38,81.46Z"/></g></g></svg>